<svg xmlns="http://www.w3.org/2000/svg" x="0px" y="0px" width="30" height="30" viewBox="0 0 172 172" style=" fill:#000000;">
	<g fill="none" fill-rule="nonzero" stroke="none" stroke-width="1" stroke-linecap="butt" stroke-linejoin="miter" stroke-miterlimit="10" stroke-dasharray="" stroke-dashoffset="0" font-family="none" font-weight="none" font-size="none" text-anchor="none" style="mix-blend-mode: normal">
		<path d="M0,172v-172h172v172z" fill="none">
		</path>
		<g fill="#ffffff">
			<path d="M86,14.33333c-39.5815,0 -71.66667,32.08517 -71.66667,71.66667c0,39.5815 32.08517,71.66667 71.66667,71.66667c39.5815,0 71.66667,-32.08517 71.66667,-71.66667c0,-39.5815 -32.08517,-71.66667 -71.66667,-71.66667zM86,28.66667c31.66233,0 57.33333,25.671 57.33333,57.33333c0,31.66233 -25.671,57.33333 -57.33333,57.33333c-31.66233,0 -57.33333,-25.671 -57.33333,-57.33333c0,-31.66233 25.671,-57.33333 57.33333,-57.33333zM121.83333,50.16667l-48.9069,22.75976l-22.75976,48.9069l48.9069,-22.75976zM86,78.11947c4.37167,0 7.88053,3.50886 7.88053,7.88053c0,4.37167 -3.50886,7.88053 -7.88053,7.88053c-4.37167,0 -7.88053,-3.50886 -7.88053,-7.88053c0,-4.37167 3.50886,-7.88053 7.88053,-7.88053z">
			</path>
		</g>
	</g>
</svg>
