<svg xmlns="http://www.w3.org/2000/svg" x="0px" y="0px" width="30" height="30" viewBox="0 0 172 172" style=" fill:#000000;">
	<g fill="none" fill-rule="nonzero" stroke="none" stroke-width="1" stroke-linecap="butt" stroke-linejoin="miter" stroke-miterlimit="10" stroke-dasharray="" stroke-dashoffset="0" font-family="none" font-weight="none" font-size="none" text-anchor="none" style="mix-blend-mode: normal">
		<path d="M0,172v-172h172v172z" fill="none">
		</path>
		<g fill="#ffffff">
			<path d="M86,18.8125c-28.62187,0 -52.13803,23.24635 -52.2724,51.86822c0.13437,10.75 3.36095,21.23178 9.67657,30.10053c0.13438,0.26875 0.26665,0.53697 0.5354,0.80572l36.81927,48.91303l0.13385,0.13385c1.34375,1.6125 3.22605,2.4198 5.1073,2.4198c1.88125,0 3.76355,-0.94167 5.1073,-2.4198l0.13385,-0.13385l36.6828,-48.91303c0.40312,-0.40312 0.67345,-0.6724 0.9422,-1.2099c6.04687,-8.73437 9.2724,-19.08073 9.2724,-29.69635c0,-28.4875 -23.3823,-51.86822 -52.13855,-51.86822zM86,26.875c24.32187,0 44.07605,19.75208 44.07605,43.93958c0,9.00312 -2.68802,17.6047 -7.92865,25.1297c-0.13437,0.13437 -0.27032,0.26718 -0.27032,0.40155l-35.87708,47.8396l-35.74322,-47.70312l-0.13385,-0.13647c0,-0.13437 -0.13595,-0.13333 -0.27032,-0.2677c-5.24062,-7.525 -8.0625,-16.26042 -8.0625,-25.26355c0.13437,-24.32188 20.0224,-43.93958 44.2099,-43.93958zM86,44.4776c-13.975,0 -25.3974,11.0198 -25.3974,24.59168c0,13.57188 11.4224,24.72552 25.3974,24.72552c13.975,0 25.3974,-11.0198 25.3974,-24.59167c0,-13.57187 -11.4224,-24.72553 -25.3974,-24.72553zM86,52.5401c9.54062,0 17.3349,7.39168 17.3349,16.52918c0,9.1375 -7.79428,16.66302 -17.3349,16.66302c-9.54063,0 -17.3349,-7.39167 -17.3349,-16.52917c0,-9.1375 7.79428,-16.66303 17.3349,-16.66303z">
			</path>
		</g>
	</g>
</svg>
