<svg version="1.1" id="Layer_1" xmlns="http://www.w3.org/2000/svg" xmlns:xlink="http://www.w3.org/1999/xlink" x="0px" y="0px" viewBox="0 0 359 360" style="enable-background:new 0 0 359 360;" xml:space="preserve">
<style type="text/css">
	.st0{fill:#FFFFFF;}
</style>
<g>
	<path class="st0" d="M27.8,180.4c0-16.8,2.6-33,7.7-48.2C40.6,117,48,102.8,57.4,90.2c9.7-13.1,21.5-24.3,34.8-33.7
		c12.7-9,26.6-16.8,41.8-21.7c14.4-4.5,29.9-6,45.8-6c16.8,0,33.2,1.7,48.4,6.7c15.3,5.1,29.3,13,42,22.4
		c13.1,9.7,24.5,21.5,33.9,34.7c9,12.7,16.3,26.8,21.1,42c4.5,14.4,6.3,29.8,6.3,45.7c0,16.8-2.4,33-7.4,48.1
		c-5.1,15.3-12.1,29.7-21.5,42.3c-9.7,13.1-21.6,24.4-34.9,33.8c-12.7,9-26.9,16.1-42.1,20.8c-14.4,4.5-29.8,7.2-45.6,7.2
		c-16.8,0-33.1-2.9-48.2-8c-15.3-5.1-29.2-12.9-41.9-22.3c-13.1-9.7-25-20.9-34.4-34.2c-9-12.7-15.8-27.1-20.6-42.3
		C30,211.6,27.8,196.3,27.8,180.4 M24.5,180.4c0,16.8,2.8,33,7.7,48.2c5.2,15.8,12.5,30.7,22.1,43.8C64,285.5,75.7,297,89,306.6
		c13.1,9.4,27.6,17.1,43.3,22.1c14.9,4.8,31,6.7,47.5,6.7c16.8,0,33.2-1.8,48.4-6.8c15.8-5.2,30.7-12.8,43.8-22.5
		c13.1-9.6,24.3-21.7,33.8-34.9c9.4-13.1,16.4-27.8,21.4-43.5c4.8-14.9,7.3-30.7,7.3-47.3c0-16.8-2.5-32.9-7.5-48.2
		c-5.2-15.8-11.9-31-21.6-44.1C295.8,75,284,63.5,270.8,54c-13.1-9.4-27.8-16.9-43.5-21.9c-14.9-4.8-31-7.4-47.5-7.4
		c-16.8,0-33.1,2.8-48.4,7.9c-15.8,5.2-30.8,12.6-43.9,22.2c-13.1,9.7-24.5,21.6-34,34.8c-9.4,13.1-16.4,27.9-21.4,43.6
		C27.2,148,24.5,163.9,24.5,180.4"></path>
	<g>
		<path class="st0" d="M45.3,241.3c-0.9,0.3-1.9-0.1-2.2-0.9c-0.3-0.9,0.1-1.9,1-2.2c0.9-0.3,2,0,2.3,0.9
			C46.7,239.9,46.2,240.9,45.3,241.3"></path>
		<path class="st0" d="M56,237c-0.9,0.4-1.9-0.1-2.2-0.9c-0.3-0.9,0.1-1.9,1-2.2s2,0,2.3,0.9C57.4,235.6,56.9,236.6,56,237"></path>
		<path class="st0" d="M66.5,232.8c-0.9,0.4-1.9-0.1-2.2-0.9c-0.3-0.9,0.1-1.9,1-2.2s2,0,2.3,0.9C67.9,231.4,67.4,232.4,66.5,232.8"></path>
		<path class="st0" d="M77.2,228.5c-0.9,0.3-1.9-0.1-2.2-0.9c-0.3-0.9,0.1-1.9,1-2.2s2,0,2.3,0.9C78.6,227.1,78.1,228.1,77.2,228.5"></path>
		<path class="st0" d="M87.8,224.2c-0.9,0.3-1.9-0.1-2.2-0.9c-0.3-0.9,0.1-1.9,1-2.2c0.9-0.4,2,0,2.3,0.9
			C89.2,222.9,88.7,223.9,87.8,224.2"></path>
		<path class="st0" d="M98.5,220c-0.9,0.4-1.9-0.1-2.2-0.9c-0.3-0.9,0.1-1.9,1-2.2c0.9-0.4,2,0,2.3,0.9
			C99.9,218.6,99.4,219.6,98.5,220"></path>
		<path class="st0" d="M109.2,215.7c-0.9,0.3-1.9-0.1-2.2-0.9c-0.3-0.9,0.1-1.9,1-2.2c0.9-0.4,2,0,2.3,0.9
			C110.6,214.2,110.1,215.3,109.2,215.7"></path>
		<path class="st0" d="M119.8,211.4c-0.9,0.4-1.9-0.1-2.2-0.9c-0.3-0.9,0.1-1.9,1-2.2c0.9-0.4,2,0,2.3,0.9
			C121.2,210,120.7,211,119.8,211.4"></path>
		<path class="st0" d="M130.3,207.2c-0.9,0.3-1.9-0.1-2.2-0.9c-0.3-0.9,0.1-1.9,1-2.2c0.9-0.3,2,0,2.3,0.9
			C131.7,205.8,131.2,206.8,130.3,207.2"></path>
	</g>
	<g>
		<path class="st0" d="M119,314.7c-0.4,0.9-1.4,1.3-2.2,1c-0.8-0.4-1.2-1.4-0.9-2.3c0.4-0.9,1.4-1.4,2.2-1
			C119.1,312.7,119.4,313.8,119,314.7"></path>
		<path class="st0" d="M123.5,304c-0.4,0.9-1.4,1.3-2.2,1c-0.8-0.4-1.2-1.4-0.9-2.3c0.4-0.9,1.4-1.4,2.2-1
			C123.5,302,123.9,303.1,123.5,304"></path>
		<path class="st0" d="M127.9,293.4c-0.4,0.9-1.4,1.3-2.2,1c-0.8-0.4-1.2-1.4-0.9-2.3c0.4-0.9,1.4-1.4,2.2-1
			C127.9,291.5,128.3,292.5,127.9,293.4"></path>
		<path class="st0" d="M132.4,282.8c-0.4,0.9-1.4,1.3-2.2,1s-1.2-1.4-0.9-2.3c0.4-0.9,1.4-1.4,2.2-1
			C132.4,280.8,132.8,281.8,132.4,282.8"></path>
		<path class="st0" d="M136.8,272.2c-0.4,0.9-1.4,1.3-2.2,1c-0.8-0.4-1.2-1.4-0.9-2.3c0.4-0.9,1.4-1.4,2.2-1
			C136.8,270.2,137.2,271.2,136.8,272.2"></path>
		<path class="st0" d="M141.3,261.4c-0.4,0.9-1.4,1.3-2.2,1s-1.2-1.4-0.9-2.3c0.4-0.9,1.4-1.4,2.2-1
			C141.3,259.4,141.7,260.5,141.3,261.4"></path>
		<path class="st0" d="M145.8,250.7c-0.4,0.9-1.4,1.3-2.2,1c-0.8-0.4-1.2-1.4-0.9-2.3c0.4-0.9,1.4-1.4,2.2-1
			C145.8,248.7,146.2,249.8,145.8,250.7"></path>
		<path class="st0" d="M150.3,240.1c-0.4,0.9-1.4,1.3-2.2,1c-0.9-0.4-1.2-1.4-0.9-2.3s1.4-1.4,2.2-1
			C150.3,238.1,150.7,239.2,150.3,240.1"></path>
		<path class="st0" d="M154.7,229.6c-0.4,0.9-1.4,1.3-2.2,1c-0.9-0.4-1.2-1.4-0.9-2.3s1.4-1.4,2.2-1
			C154.7,227.6,155.1,228.6,154.7,229.6"></path>
	</g>
	<g>
		<path class="st0" d="M238.5,314.7c0.4,0.9,1.4,1.3,2.2,1c0.8-0.4,1.2-1.4,0.9-2.3c-0.4-0.9-1.4-1.4-2.2-1
			C238.5,312.7,238.1,313.8,238.5,314.7"></path>
		<path class="st0" d="M234.1,304c0.4,0.9,1.4,1.3,2.2,1c0.8-0.4,1.2-1.4,0.9-2.3c-0.4-0.9-1.4-1.4-2.2-1
			C234,302,233.6,303.1,234.1,304"></path>
		<path class="st0" d="M229.6,293.4c0.4,0.9,1.4,1.3,2.2,1c0.8-0.4,1.2-1.4,0.9-2.3c-0.4-0.9-1.4-1.4-2.2-1
			C229.6,291.5,229.2,292.5,229.6,293.4"></path>
		<path class="st0" d="M225.1,282.8c0.4,0.9,1.4,1.3,2.2,1c0.8-0.4,1.2-1.4,0.9-2.3c-0.4-0.9-1.4-1.4-2.2-1
			C225.1,280.8,224.8,281.8,225.1,282.8"></path>
		<path class="st0" d="M220.7,272.2c0.4,0.9,1.4,1.3,2.2,1c0.8-0.4,1.2-1.4,0.9-2.3c-0.4-0.9-1.4-1.4-2.2-1
			C220.7,270.2,220.3,271.2,220.7,272.2"></path>
		<path class="st0" d="M216.2,261.4c0.4,0.9,1.4,1.3,2.2,1c0.8-0.4,1.2-1.4,0.9-2.3c-0.4-0.9-1.4-1.4-2.2-1
			C216.2,259.4,215.8,260.5,216.2,261.4"></path>
		<path class="st0" d="M211.7,250.7c0.4,0.9,1.4,1.3,2.2,1c0.8-0.4,1.2-1.4,0.9-2.3c-0.4-0.9-1.4-1.4-2.2-1
			C211.7,248.7,211.3,249.8,211.7,250.7"></path>
		<path class="st0" d="M207.2,240.1c0.4,0.9,1.4,1.3,2.2,1c0.9-0.4,1.2-1.4,0.9-2.3s-1.4-1.4-2.2-1
			C207.2,238.1,206.9,239.2,207.2,240.1"></path>
		<path class="st0" d="M202.9,229.6c0.4,0.9,1.4,1.3,2.2,1c0.9-0.4,1.2-1.4,0.9-2.3s-1.4-1.4-2.2-1
			C202.9,227.6,202.5,228.6,202.9,229.6"></path>
	</g>
	<g>
		<path class="st0" d="M314.4,122.6c0.9-0.4,1.3-1.4,1-2.2c-0.3-0.9-1.4-1.2-2.3-0.9c-0.9,0.4-1.4,1.4-1,2.3
			C312.4,122.6,313.4,123,314.4,122.6"></path>
		<path class="st0" d="M303.8,127.1c0.9-0.4,1.3-1.4,1-2.2c-0.4-0.9-1.4-1.2-2.3-0.9c-0.9,0.4-1.4,1.4-1,2.3
			C301.8,127.1,302.9,127.5,303.8,127.1"></path>
		<path class="st0" d="M293.4,131.6c0.9-0.4,1.3-1.4,1-2.2c-0.3-0.9-1.4-1.2-2.3-0.9s-1.4,1.4-1,2.3
			C291.4,131.6,292.5,131.9,293.4,131.6"></path>
		<path class="st0" d="M282.8,136.1c0.9-0.4,1.3-1.4,1-2.2c-0.3-0.8-1.4-1.2-2.3-0.9s-1.4,1.4-1,2.3
			C280.8,136.1,281.9,136.5,282.8,136.1"></path>
		<path class="st0" d="M272.3,140.6c0.9-0.4,1.3-1.4,1-2.2c-0.3-0.9-1.4-1.2-2.3-0.9c-0.9,0.4-1.4,1.4-1,2.3
			C270.3,140.6,271.4,141,272.3,140.6"></path>
		<path class="st0" d="M261.7,145.1c0.9-0.4,1.3-1.4,1-2.2c-0.3-0.9-1.4-1.2-2.3-0.9c-0.9,0.4-1.4,1.4-1,2.3
			C259.7,145.1,260.8,145.5,261.7,145.1"></path>
		<path class="st0" d="M251.1,149.6c0.9-0.4,1.3-1.4,1-2.2c-0.3-0.9-1.4-1.2-2.3-0.9s-1.4,1.4-1,2.3
			C249.1,149.7,250.2,150,251.1,149.6"></path>
		<path class="st0" d="M240.6,154.2c0.9-0.4,1.3-1.4,1-2.2c-0.3-0.9-1.4-1.2-2.3-0.9s-1.4,1.4-1,2.3
			C238.6,154.2,239.6,154.5,240.6,154.2"></path>
		<path class="st0" d="M230.2,158.6c0.9-0.4,1.3-1.4,1-2.2c-0.3-0.9-1.4-1.3-2.3-0.9c-0.9,0.4-1.4,1.4-1,2.3
			C228.2,158.6,229.2,159,230.2,158.6"></path>
	</g>
	<g>
		<path class="st0" d="M42.7,121.7c-0.9-0.4-1.3-1.4-1-2.2c0.3-0.9,1.4-1.2,2.3-0.9c0.9,0.4,1.4,1.4,1,2.3
			C44.7,121.7,43.6,122.1,42.7,121.7"></path>
		<path class="st0" d="M53.3,126.2c-0.9-0.4-1.3-1.4-1-2.2c0.4-0.9,1.4-1.2,2.3-0.9c0.9,0.4,1.4,1.4,1,2.3
			C55.2,126.2,54.2,126.6,53.3,126.2"></path>
		<path class="st0" d="M63.7,130.7c-0.9-0.4-1.3-1.4-1-2.2c0.3-0.9,1.4-1.2,2.3-0.9c0.9,0.4,1.4,1.4,1,2.3
			C65.6,130.7,64.6,131.1,63.7,130.7"></path>
		<path class="st0" d="M74.3,135.2c-0.9-0.4-1.3-1.4-1-2.2c0.3-0.8,1.4-1.2,2.3-0.9c0.9,0.4,1.4,1.4,1,2.3
			C76.2,135.2,75.2,135.6,74.3,135.2"></path>
		<path class="st0" d="M84.7,139.7c-0.9-0.4-1.3-1.4-1-2.2c0.3-0.9,1.4-1.2,2.3-0.9s1.4,1.4,1,2.3C86.7,139.7,85.7,140.1,84.7,139.7
			"></path>
		<path class="st0" d="M95.4,144.2c-0.9-0.4-1.3-1.4-1-2.2c0.3-0.9,1.4-1.2,2.3-0.9c0.9,0.4,1.4,1.4,1,2.3
			C97.3,144.2,96.3,144.6,95.4,144.2"></path>
		<path class="st0" d="M105.9,148.8c-0.9-0.4-1.3-1.4-1-2.2c0.3-0.9,1.4-1.2,2.3-0.9c0.9,0.4,1.4,1.4,1,2.3
			C107.9,148.8,106.8,149.1,105.9,148.8"></path>
		<path class="st0" d="M116.5,153.3c-0.9-0.4-1.3-1.4-1-2.2c0.3-0.9,1.4-1.2,2.3-0.9s1.4,1.4,1,2.3
			C118.5,153.3,117.4,153.7,116.5,153.3"></path>
		<path class="st0" d="M126.9,157.7c-0.9-0.4-1.3-1.4-1-2.2c0.3-0.9,1.4-1.3,2.3-0.9c0.9,0.4,1.4,1.4,1,2.3
			C128.9,157.7,127.8,158.1,126.9,157.7"></path>
	</g>
	<g>
		<path class="st0" d="M202.9,129.2c-0.4,0.9-1.4,1.3-2.2,1c-0.9-0.3-1.2-1.4-0.9-2.3c0.4-0.9,1.4-1.4,2.3-1
			C203,127.3,203.3,128.3,202.9,129.2"></path>
		<path class="st0" d="M207.4,118.8c-0.4,0.9-1.4,1.3-2.2,1c-0.9-0.3-1.2-1.4-0.9-2.3c0.4-0.9,1.4-1.4,2.3-1
			C207.4,116.8,207.8,117.9,207.4,118.8"></path>
		<path class="st0" d="M212,108.1c-0.4,0.9-1.4,1.3-2.2,1c-0.9-0.3-1.2-1.4-0.9-2.3c0.4-0.9,1.4-1.4,2.3-1
			C212,106.1,212.3,107.2,212,108.1"></path>
		<path class="st0" d="M216.4,97.6c-0.4,0.9-1.4,1.3-2.2,1c-0.9-0.4-1.2-1.4-0.9-2.3c0.4-0.9,1.4-1.4,2.3-1
			C216.5,95.6,216.9,96.7,216.4,97.6"></path>
		<path class="st0" d="M220.9,87.1c-0.4,0.9-1.4,1.3-2.2,1c-0.9-0.4-1.2-1.4-0.9-2.3c0.4-0.9,1.4-1.4,2.3-1
			C220.9,85.2,221.3,86.2,220.9,87.1"></path>
		<path class="st0" d="M225.4,76.6c-0.4,0.9-1.4,1.3-2.2,1c-0.9-0.3-1.2-1.4-0.9-2.3c0.4-0.9,1.4-1.4,2.3-1
			C225.4,74.6,225.8,75.7,225.4,76.6"></path>
		<path class="st0" d="M229.9,66.1c-0.4,0.9-1.4,1.3-2.2,1c-0.9-0.4-1.2-1.4-0.9-2.3c0.4-0.9,1.4-1.4,2.3-1
			C229.9,64.1,230.3,65.2,229.9,66.1"></path>
		<path class="st0" d="M234.4,55.6c-0.4,0.9-1.4,1.3-2.2,1c-0.9-0.3-1.2-1.4-0.9-2.3c0.4-0.9,1.4-1.4,2.3-1
			C234.4,53.6,234.8,54.7,234.4,55.6"></path>
		<path class="st0" d="M239,45c-0.4,0.9-1.4,1.3-2.2,1c-0.9-0.3-1.2-1.4-0.9-2.3c0.4-0.9,1.4-1.4,2.3-1C239,43,239.4,44.1,239,45"></path>
	</g>
	<g>
		<path class="st0" d="M153.5,130.3c0.4,0.9,1.4,1.3,2.2,1c0.9-0.3,1.2-1.4,0.9-2.3c-0.4-0.9-1.4-1.4-2.3-1
			C153.4,128.3,153.1,129.4,153.5,130.3"></path>
		<path class="st0" d="M149,119.8c0.4,0.9,1.4,1.3,2.2,1c0.9-0.3,1.2-1.4,0.9-2.3s-1.4-1.4-2.3-1C149,117.9,148.6,118.9,149,119.8"></path>
		<path class="st0" d="M144.5,109.2c0.4,0.9,1.4,1.3,2.2,1c0.9-0.3,1.2-1.4,0.9-2.3c-0.4-0.9-1.4-1.4-2.3-1
			C144.5,107.2,144.1,108.3,144.5,109.2"></path>
		<path class="st0" d="M140,98.7c0.4,0.9,1.4,1.3,2.2,1c0.9-0.4,1.2-1.4,0.9-2.3c-0.4-0.9-1.4-1.4-2.3-1
			C139.9,96.7,139.6,97.8,140,98.7"></path>
		<path class="st0" d="M135.5,88.2c0.4,0.9,1.4,1.3,2.2,1c0.9-0.4,1.2-1.4,0.9-2.3c-0.4-0.9-1.4-1.4-2.3-1
			C135.5,86.2,135.1,87.3,135.5,88.2"></path>
		<path class="st0" d="M131,77.6c0.4,0.9,1.4,1.3,2.2,1c0.9-0.3,1.2-1.4,0.9-2.3c-0.4-0.9-1.4-1.4-2.3-1
			C131,75.7,130.6,76.7,131,77.6"></path>
		<path class="st0" d="M126.5,67.1c0.4,0.9,1.4,1.3,2.2,1c0.9-0.4,1.2-1.4,0.9-2.3c-0.4-0.9-1.4-1.4-2.3-1
			C126.5,65.2,126.1,66.2,126.5,67.1"></path>
		<path class="st0" d="M122,56.6c0.4,0.9,1.4,1.3,2.2,1c0.9-0.3,1.2-1.4,0.9-2.3c-0.4-0.9-1.4-1.4-2.3-1
			C122,54.7,121.6,55.7,122,56.6"></path>
		<path class="st0" d="M117.4,46c0.4,0.9,1.4,1.3,2.2,1c0.9-0.3,1.2-1.4,0.9-2.3c-0.4-0.9-1.4-1.4-2.3-1
			C117.4,44.1,117.1,45.1,117.4,46"></path>
	</g>
	<g>
		<path class="st0" d="M313.8,239.1c0.9,0.4,1.3,1.4,1,2.2c-0.3,0.9-1.4,1.3-2.3,0.9c-0.9-0.4-1.4-1.4-1-2.3
			C311.8,239.1,312.9,238.7,313.8,239.1"></path>
		<path class="st0" d="M303.2,234.6c0.9,0.4,1.3,1.4,1,2.2c-0.4,0.9-1.4,1.3-2.3,0.9c-0.9-0.4-1.4-1.4-1-2.3
			C301.2,234.6,302.3,234.2,303.2,234.6"></path>
		<path class="st0" d="M292.8,230.1c0.9,0.4,1.3,1.4,1,2.2c-0.4,0.9-1.4,1.3-2.3,0.9c-0.9-0.4-1.4-1.4-1-2.3
			C290.8,230.1,291.9,229.7,292.8,230.1"></path>
		<path class="st0" d="M282.2,225.6c0.9,0.4,1.3,1.4,1,2.2c-0.3,0.9-1.4,1.2-2.3,0.9c-0.9-0.4-1.4-1.4-1-2.3
			C280.2,225.6,281.3,225.2,282.2,225.6"></path>
		<path class="st0" d="M271.7,221.1c0.9,0.4,1.3,1.4,1,2.2c-0.3,0.9-1.4,1.3-2.3,0.9c-0.9-0.4-1.4-1.4-1-2.3
			C269.8,221.1,270.8,220.8,271.7,221.1"></path>
		<path class="st0" d="M261.1,216.6c0.9,0.4,1.3,1.4,1,2.2c-0.3,0.9-1.4,1.2-2.3,0.9c-0.9-0.4-1.4-1.4-1-2.3
			C259.1,216.6,260.2,216.2,261.1,216.6"></path>
		<path class="st0" d="M250.5,212.1c0.9,0.4,1.3,1.4,1,2.2c-0.3,0.9-1.4,1.2-2.3,0.9c-0.9-0.4-1.4-1.4-1-2.3
			C248.6,212.1,249.6,211.7,250.5,212.1"></path>
		<path class="st0" d="M240,207.6c0.9,0.4,1.3,1.4,1,2.2c-0.3,0.9-1.4,1.2-2.3,0.9s-1.4-1.4-1-2.3C238,207.5,239.1,207.2,240,207.6"></path>
		<path class="st0" d="M229.6,203.1c0.9,0.4,1.3,1.4,1,2.2c-0.4,0.9-1.4,1.2-2.3,0.9c-0.9-0.4-1.4-1.4-1-2.3
			C227.6,203.1,228.7,202.7,229.6,203.1"></path>
	</g>
	<path class="st0" d="M18.2,180c0-88.9,72.4-161.3,161.3-161.3S340.9,91.1,340.9,180s-72.4,161.3-161.3,161.3S18.2,268.9,18.2,180
		 M11.6,180c0,92.6,75.3,167.9,167.9,167.9S347.4,272.6,347.4,180S272.1,12.1,179.5,12.1S11.6,87.4,11.6,180"></path>
	
		<rect x="266.7" y="239.4" transform="matrix(0.7071 -0.7072 0.7072 0.7071 -112.1272 268.0646)" class="st0" width="1.6" height="60"></rect>
	<polygon class="st0" points="71.1,72.9 111.7,113.5 112.9,112.4 72.3,71.8 	"></polygon>
	<polygon class="st0" points="247.1,111.8 248.2,113 287.9,73.4 286.7,72.3 	"></polygon>
	<polygon class="st0" points="72.3,287.9 73.5,289 111.7,250.8 110.5,249.7 	"></polygon>
	<path class="st0" d="M178.5,165.6h-5.2v22.6c0,5.2,0.6,6.1,4.5,6.1h0.6c10.5,0,12.6-8,12.6-14.3C191.1,173.7,189,165.6,178.5,165.6
		z"></path>
	<path class="st0" d="M329.1,179.5l-120.7-16.8l30.4-42l-42,29.4L179,30.4l-16.8,119.7l-42-29.4l29.4,42L29.9,179.5l120.7,17.9
		l-30.4,42l42-29.4L179,329.6l17.9-120.7l42,30.4l-29.4-42L329.1,179.5z M178.3,197.3h-16.9v-1.6c5.3,0,6.3-1.4,6.3-9.3v-12.7
		c0-8-1-9.2-6.3-9.2v-1.6h16.9c13.5,0,19.4,7.8,19.4,17.2C197.7,189.4,191.8,197.3,178.3,197.3z"></path>
</g>
</svg>