<svg xmlns="http://www.w3.org/2000/svg" x="0px" y="0px" width="30" height="30" viewBox="0 0 172 172" style=" fill:#000000;">
	<g fill="none" fill-rule="nonzero" stroke="none" stroke-width="1" stroke-linecap="butt" stroke-linejoin="miter" stroke-miterlimit="10" stroke-dasharray="" stroke-dashoffset="0" font-family="none" font-weight="none" font-size="none" text-anchor="none" style="mix-blend-mode: normal">
		<path d="M0,172v-172h172v172z" fill="none">
		</path>
		<g fill="#ffffff">
			<path d="M78.83333,0v21.5h14.33333v-21.5zM30.26237,20.12826l-10.13411,10.13411l15.20117,15.20117l10.13411,-10.13411zM141.73763,20.12826l-15.20117,15.20117l10.13411,10.13411l15.20117,-15.20117zM86,35.83333c-27.6214,0 -50.16667,22.54527 -50.16667,50.16667c0,27.6214 22.54527,50.16667 50.16667,50.16667c27.6214,0 50.16667,-22.54527 50.16667,-50.16667c0,-27.6214 -22.54527,-50.16667 -50.16667,-50.16667zM86,50.16667c19.87509,0 35.83333,15.95824 35.83333,35.83333c0,19.87509 -15.95825,35.83333 -35.83333,35.83333c-19.87509,0 -35.83333,-15.95825 -35.83333,-35.83333c0,-19.87509 15.95824,-35.83333 35.83333,-35.83333zM0,78.83333v14.33333h21.5v-14.33333zM150.5,78.83333v14.33333h21.5v-14.33333zM35.32943,126.53646l-15.20117,15.20117l10.13411,10.13411l15.20117,-15.20117zM136.67057,126.53646l-10.13411,10.13411l15.20117,15.20117l10.13411,-10.13411zM78.83333,150.5v21.5h14.33333v-21.5z">
			</path>
		</g>
	</g>
</svg>
