
<svg xmlns="http://www.w3.org/2000/svg" x="0px" y="0px" width="30" height="30" viewBox="0 0 172 172" style=" fill:#000000;">
	<g fill="none" fill-rule="nonzero" stroke="none" stroke-width="1" stroke-linecap="butt" stroke-linejoin="miter" stroke-miterlimit="10" stroke-dasharray="" stroke-dashoffset="0" font-family="none" font-weight="none" font-size="none" text-anchor="none" style="mix-blend-mode: normal">
		<path d="M0,172v-172h172v172z" fill="none">
		</path>
		<g fill="#ffffff">
			<path d="M86,21.5c-16.17006,0 -29.65523,12.03761 -31.89307,27.65186c-0.36315,2.53568 0.65426,5.07245 2.66888,6.6545c2.01461,1.58205 4.72028,1.96895 7.09755,1.01493c2.37727,-0.95402 4.06487,-3.10398 4.42694,-5.63981c1.24516,-8.68792 8.6001,-15.34814 17.69971,-15.34814c9.98003,0 17.91667,7.93664 17.91667,17.91667c0,9.98003 -7.93664,17.91667 -17.91667,17.91667h-71.66667c-2.58456,-0.03655 -4.98858,1.32136 -6.29153,3.55376c-1.30295,2.2324 -1.30295,4.99342 0,7.22582c1.30295,2.2324 3.70697,3.59031 6.29153,3.55376h71.66667c17.72631,0 32.25,-14.52369 32.25,-32.25c0,-17.72631 -14.52369,-32.25 -32.25,-32.25zM141.54167,71.66667c-10.07694,0 -18.69465,6.50795 -21.89193,15.51611c-0.85774,2.41291 -0.36302,5.10012 1.2978,7.04936c1.66081,1.94924 4.23539,2.86435 6.75388,2.4006c2.51848,-0.46375 4.59824,-2.23589 5.45581,-4.64885c1.23889,-3.4905 4.44338,-5.98389 8.38444,-5.98389c5.03045,0 8.95833,3.92789 8.95833,8.95833c0,5.03045 -3.92789,8.95833 -8.95833,8.95833h-32.25h-94.95833c-2.58456,-0.03655 -4.98858,1.32136 -6.29153,3.55376c-1.30295,2.2324 -1.30295,4.99342 0,7.22582c1.30295,2.2324 3.70697,3.59031 6.29153,3.55376h94.95833c5.03045,0 8.95833,3.92789 8.95833,8.95833c0,5.03045 -3.92789,8.95833 -8.95833,8.95833c-3.94106,0 -7.14555,-2.49339 -8.38444,-5.98389c-0.85757,-2.41296 -2.93733,-4.18511 -5.45581,-4.64885c-2.51848,-0.46375 -5.09306,0.45136 -6.75388,2.4006c-1.66081,1.94924 -2.15553,4.63645 -1.2978,7.04936c3.19728,9.00817 11.81499,15.51611 21.89193,15.51611c12.77872,0 23.29167,-10.51295 23.29167,-23.29167c0,-3.16993 -0.65871,-6.19314 -1.82666,-8.95833h10.78499c12.77872,0 23.29167,-10.51295 23.29167,-23.29167c0,-12.77872 -10.51295,-23.29167 -23.29167,-23.29167z">
			</path>
		</g>
	</g>
</svg>
